<?xml version="1.0" encoding="UTF-8" standalone="no"?>
<svg
   xmlns:dc="http://purl.org/dc/elements/1.1/"
   xmlns:cc="http://creativecommons.org/ns#"
   xmlns:rdf="http://www.w3.org/1999/02/22-rdf-syntax-ns#"
   xmlns:svg="http://www.w3.org/2000/svg"
   xmlns="http://www.w3.org/2000/svg"
   xmlns:sodipodi="http://sodipodi.sourceforge.net/DTD/sodipodi-0.dtd"
   xmlns:inkscape="http://www.inkscape.org/namespaces/inkscape"
   width="1467.2744"
   height="1191.9169"
   viewBox="-0.25 -0.25 651.17638 529.05616"
   id="svg2"
   version="1.1"
   inkscape:version="0.91 r13725"
   sodipodi:docname="twitter.svg">
  <metadata
     id="metadata12">
    <rdf:RDF>
      <cc:Work
         rdf:about="">
        <dc:format>image/svg+xml</dc:format>
        <dc:type
           rdf:resource="http://purl.org/dc/dcmitype/StillImage" />
        <dc:title></dc:title>
      </cc:Work>
    </rdf:RDF>
  </metadata>
  <defs
     id="defs10" />
  <sodipodi:namedview
     pagecolor="#ffffff"
     bordercolor="#666666"
     borderopacity="1"
     objecttolerance="10"
     gridtolerance="10"
     guidetolerance="10"
     inkscape:pageopacity="0"
     inkscape:pageshadow="2"
     inkscape:window-width="1680"
     inkscape:window-height="997"
     id="namedview8"
     showgrid="false"
     fit-margin-top="0"
     fit-margin-left="0"
     fit-margin-right="0"
     fit-margin-bottom="0"
     inkscape:zoom="0.11619892"
     inkscape:cx="1114.4314"
     inkscape:cy="860.60919"
     inkscape:window-x="-8"
     inkscape:window-y="-8"
     inkscape:window-maximized="1"
     inkscape:current-layer="svg2" />
  <path
     inkscape:connector-curvature="0"
     id="path4153"
     d="m 185.71999,528.42161 c -0.35616,-0.19661 -2.19345,-0.40286 -4.55898,-0.51184 -4.37601,-0.20155 -10.17679,-0.72883 -14.77369,-1.34286 -42.24533,-5.64317 -50.37043,-7.31951 -75.288276,-15.53295 -18.41332,-6.06938 -32.27293,-11.3138 -44.67798,-16.90597 -5.28733,-2.38357 -28.942279,-14.19918 -32.867401,-16.41725 -4.9299509,-2.7859 -11.6034629,-6.95527 -13.43880488,-8.39602 -0.660206,-0.5183 -0.581584,-1.03931 0.13026,-0.86317 4.91646998,1.21661 32.38378588,1.96727 45.13388588,1.23345 13.39843,-0.7712 25.54311,-2.34243 37.64414,-4.87026 14.62228,-3.05453 30.147126,-7.41776 42.352946,-11.90318 12.30079,-4.52029 32.14477,-13.58821 39.83893,-18.20475 6.40268,-3.84164 26.5358,-17.24967 28.33154,-18.86796 0.53772,-0.48456 1.15608,-0.88102 1.37414,-0.88102 0.45131,0 1.03048,-1.2817 0.71889,-1.59094 -0.11278,-0.11193 -3.13583,-0.38607 -6.71789,-0.60928 -9.77434,-0.60898 -12.01608,-0.94299 -20.25117,-3.01755 -14.95316,-3.76704 -31.44823,-11.32484 -46.09128,-21.11848 -7.17032,-4.79567 -10.79247,-7.88224 -17.43673,-14.85829 -7.881746,-8.2753 -11.632106,-12.79652 -15.903586,-19.17228 -4.50165,-6.71933 -7.34894,-12.07156 -12.92711,-24.29996 -3.43621,-7.53279 -4.14579,-9.28924 -3.86588,-9.56914 0.0857,-0.0857 1.94374,0.0947 4.12904,0.40074 7.38074,1.03379 10.38203,1.17125 22.07894,1.01114 14.250456,-0.19504 19.270336,-0.58392 26.051306,-2.01799 1.36118,-0.28794 3.14432,-0.64842 3.96252,-0.80113 1.77479,-0.33132 2.39581,-0.86124 1.46964,-1.25412 -0.33697,-0.14291 -1.78498,-0.56332 -3.2178,-0.93419 -5.1922,-1.34391 -7.28064,-2.02514 -11.67672,-3.80889 -14.18179,-5.7545 -23.524196,-10.28735 -29.614596,-14.36886 -7.74119,-5.18778 -16.33821,-12.5148 -22.44037,-19.12532 -8.49428,-9.20198 -13.47362,-15.70092 -18.11873,-23.64819 -8.663656,-14.82267 -14.550534,-30.77228 -17.257036,-46.75542 -0.790495,-4.66824 -1.909762,-14.97137 -2.269076,-20.88735 l -0.176291,-2.90264 0.627645,0.14071 c 0.345204,0.0774 2.796417,1.15974 5.447139,2.40522 9.335369,4.38635 13.623089,6.01008 21.362069,8.08966 5.29789,1.42362 19.48085,4.45357 23.18567,4.95323 3.03123,0.40881 7.96844,0.5032 8.18275,0.15644 0.16407,-0.26546 -0.58964,-0.95513 -2.19095,-2.0048 -4.94017,-3.23831 -10.68784,-7.95015 -14.32822,-11.74602 -5.26008,-5.48475 -13.25389,-14.99063 -16.88145,-20.07464 -8.64281,-12.11291 -16.985234,-31.46247 -20.63075,-47.85133 -2.470921,-11.1083 -3.273196,-19.719291 -3.047393,-32.708211 0.195336,-11.23614 0.839333,-16.21917 3.436528,-26.59045 2.227382,-8.89449 4.589724,-15.39239 10.134085,-27.8749 1.81378,-4.08354 3.41282,-7.69673 3.55342,-8.02932 0.35797,-0.84681 1.01046,-0.63227 1.84494,0.60659 0.81824,1.21477 9.26466,10.62006 15.07719,16.7888 10.46793,11.10945 22.05633,22.49218 24.33927,23.90729 0.58375,0.36184 1.98122,1.64173 3.1055,2.8442 3.59633,3.84644 13.862856,12.37283 22.574336,18.74807 24.60705,18.007931 50.87321,33.198441 76.98162,44.520791 13.05902,5.66326 39.5683,15.42083 48.77261,17.95227 10.61593,2.91969 36.90727,8.05606 54.77164,10.7004 9.08867,1.34533 28.1451,2.98258 28.1451,2.4181 0,-0.0778 -0.40476,-2.70449 -0.89947,-5.83717 -1.21645,-7.70284 -1.43903,-10.37833 -1.62261,-19.50299 -0.37652,-18.71569 1.72877,-32.48034 7.5747,-49.524091 2.85851,-8.33398 6.51393,-16.54654 9.78628,-21.98675 3.66672,-6.09577 10.34229,-15.4534 14.21719,-19.92925 2.93642,-3.39181 10.7265,-11.11417 14.05882,-13.93659 14.68424,-12.43732 34.1466,-22.7755802 53.14466,-28.2300502 4.82768,-1.38605 7.34085,-1.93907 13.78865,-3.03417 2.5689,-0.43630005 4.81056,-0.90934005 4.98148,-1.05120005 0.19948,-0.16556 5.7105,-0.23174 15.38882,-0.18479 l 15.07802,0.0731 8.20617,1.75400005 c 13.05131,2.78962 19.26317,4.63334 27.61438,8.19609 14.65775,6.2532302 29.35407,15.4673402 39.20722,24.5816302 4.66381,4.31409 6.42647,5.06467 11.85335,5.04744 3.94576,-0.0125 5.26367,-0.24465 12.72768,-2.24178 14.49276,-3.87782 29.75085,-9.55243 48.24677,-17.94335 8.52814,-3.86892 12.87006,-6.10523 17.65341,-9.09243 0.47563,-0.2970102 0.97386,-0.5400302 1.10721,-0.5400302 0.47023,0 0.23265,1.3390902 -0.63651,3.5876702 -0.48344,1.25063 -1.01929,2.87512 -1.19073,3.60996 -0.55592,2.38256 -6.58722,14.23059 -10.39323,20.41676 -7.32579,11.90703 -15.46146,22.00757 -23.35761,28.99894 -2.29254,2.02982 -5.53541,4.99814 -7.20641,6.59626 -1.98083,1.89449 -4.11139,3.60948 -6.12203,4.92802 -1.69618,1.11228 -3.72866,2.44967 -4.51671,2.97197 -0.78805,0.52231 -1.43283,1.11934 -1.43283,1.32674 0,0.77188 2.19218,0.53184 9.68465,-1.06044 14.35108,-3.04988 21.27724,-4.7129 29.68577,-7.12777 6.85232,-1.96793 27.97761,-8.90864 30.19491,-9.92052 1.00749,-0.45981 2.38498,-0.91182 3.06098,-1.00448 1.10821,-0.15189 1.22912,-0.11769 1.22912,0.34757 0,0.28382 -0.16762,0.51604 -0.37257,0.51604 -0.51179,0 -1.19907,0.86436 -9.31584,11.71633 -3.90884,5.22607 -7.75723,10.14977 -8.55197,10.94155 -0.79468,0.79177 -1.79161,1.90851 -2.2153,2.48164 -1.77594,2.40226 -18.16584,18.707191 -24.48666,24.359671 -2.00383,1.79196 -5.4604,4.7946 -7.68128,6.67254 -6.48709,5.4854 -8.97724,8.40737 -11.12329,13.05207 -1.8908,4.0925 -2.16659,5.88031 -2.56317,16.61526 -0.87409,23.66267 -2.08201,37.0783 -4.97285,55.22878 -4.53848,28.49561 -13.74251,61.43577 -24.72201,88.47755 -10.04335,24.73598 -20.43621,44.63737 -35.60583,68.18197 -8.22753,12.76988 -19.17395,27.44271 -28.89038,38.72529 -5.74294,6.66862 -10.48344,11.68696 -22.24115,23.54477 -9.28177,9.36086 -11.59731,11.53907 -17.59224,16.54896 -18.05741,15.09041 -32.96147,26.0381 -45.8503,33.67912 -8.9189,5.2875 -28.03965,15.52473 -35.97347,19.26013 -21.37991,10.06627 -51.55848,20.33173 -75.26561,25.60215 -15.20763,3.38091 -28.34658,5.26179 -55.60596,7.96018 -9.11476,0.9022 -13.82767,1.46758 -13.89403,1.66666 -0.15191,0.45568 -37.46847,0.37856 -38.29772,-0.0792 z"
     style="fill:#5ca7db" />
</svg>
